<svg xmlns="http://www.w3.org/2000/svg" viewBox="0 0 256 256" fill="currentColor">
  <path d="M186.42,139.64c-8.22,36.56-28.99,74.98-64.24,85.08-22.18,6.36-41.01-1.18-38.45-10.53.72-2.63,4.57-5.37,7.16-6.13,13.6-3.95,24.51,5.25,28.48-1.06-13.1-8.02-32.55-10.47-40.37,1.21-4.57,6.83-2.63,14.82,4.13,19.43,11.43,7.78,25.75,8.2,39.11,4.65,34.69-9.23,55.69-40.5,66.56-74.46,7.95-24.84,12.56-49.57,17-75.21l10.21-59.01c-1.26-2.48-5.88-2.43-8.09-1.35-7.5,3.67-14.75,6.29-22.31,9.53l-27.79,11.88c-35.97,15.38-81.01,35.81-102.29,68.58-13.58,20.91-16.74,46.35-8.61,69.66.5,1.43,1.49,2.57,2.18,3,1.29.81,3.19.07,3.86-.77,1.24-1.56.36-3.17-.14-4.84-9.14-30.08,1.23-60.97,24.77-81.63,22.92-20.12,50.8-33.28,78.76-45.43l31.32-13.6,19.96-7.94-12.92,72.24-8.25,36.69Z"/>
  <path d="M41.71,210.66c-1.85,1.44-1.85,4.84-1.58,6,.36,1.56,2.16,3.11,4.59,3.17,1.98.05,2.97-1.89,4.72-3.58,11.13-10.78,23.12-19.46,35.35-28.96,39.19-30.45,77.97-70.75,97.61-116.38,1.04-2.42,2.29-5.34-.83-7.52-16.93,29.53-35.49,56.43-59.33,80.52-18.43,18.62-38.28,33.88-58.83,49.87l-21.7,16.88Z"/>
  <path d="M93.05,104.73c-21.6,10.83-29.62,41.57-13.52,60.76,22.06-10.17,31.13-35.4,21.67-57.02-.81-1.84-1.95-3.3-3.11-3.96-1.46-.83-3.34-.63-5.04.23ZM80.76,156.34c-7.15-16.97-1.3-36.31,14.66-45.26,6.2,16.49,1.72,36.21-14.66,45.26Z"/>
  <path d="M137.17,73.5c-26.19,12.45-24.6,46.25-17.26,51.11,1.39.92,3.64.68,5.5-.34,26.95-14.72,26.3-47.74,19.16-51.12-2-.95-4.89-.84-7.4.35ZM123.18,117.34c-4.12-16.01,3.48-31.11,17.19-37.77,1.85,1.95,2.39,4.71,1.95,7.67-2.04,13.73-6.73,23.19-19.14,30.1Z"/>
  <path d="M107.51,185.84c9.34,7.72,22.44,9.91,33.48,5.72,10.31-3.92,20.31-11.43,21.52-22.91-6.22-6.59-17.87-6.99-26.24-4.57-12.35,2.28-22.39,8.33-28.76,21.76ZM116.51,183.26c10.31-12.3,25.08-15.89,38.83-12.29-7.06,14.74-25.3,19.87-38.83,12.29Z"/>
  <path d="M143.73,149.26c5.97,3.97,12.13,2.52,17.69.03,9.1-4.08,15.41-12.2,15.57-22.56.13-8.76-27.06-.78-33.25,22.53ZM153.44,143.49c4.28-7.31,9.6-10.51,16.18-12.6-2.03,8.11-8.78,13.34-16.18,12.6Z"/>
</svg>