  <svg xmlns="http://www.w3.org/2000/svg" viewBox="0 0 256 256" fill="currentColor">
    <path d="M192.19,197.14c0,4.48-1.56,7.39-3.1,11.01l21.88.03c-1.79-3.98-3.13-7.27-3.14-11.59l-.24-146.76-30.44,33.44-38.02,43.32c-1.29,1.47-2.71,2.48-4.31,1.27-1.16-.88-1.15-2.93.11-4.38l34.12-39.08,10.12-11.28,8.71-9.61,10.23-11.15c4.74-5.17,9.99-12.39,12.97-11.66.58.14,1.71.66,1.71,2.11l.17,153.76c0,3.3,1.18,7.22,3.11,9.13,3.44,3.41,11.37,1.86,11.91,5.08.24,1.41-1.2,2.78-3,2.77l-51.02-.09c-1.29,0-1.59-2.9-.94-3.68,1.95-2.34,10.62-.46,12.51-6.36,2.06-6.41,1.35-12.9,1.34-19.76l-.02-96.31c0-1.63,1.26-2.79,2-3.18,1.09-.58,3.45.22,3.45,2.27l-.09,110.7Z"/>
    <path d="M34.21,126.36c-3.52,26.56.93,57.48,22.08,72.97,13.32,9.75,27.81,9.34,28.4,2.44.17-1.94-1.74-4.73-3.29-5.88-8.15-6.01-17.74-2.53-18.85-7.75,10.77-2.14,24.43,1.02,26.79,10.79,1.38,5.71-1.9,10.6-7.58,12.01-9.59,2.4-19.31-.86-27.39-6.54-21-14.77-27.36-40.94-26.26-66.42.81-18.64,3.82-36.37,7.18-54.67l7.73-42.12c1.46-1.35,4.55-.18,5.76,1.1,4.12,4.32,8.34,7.87,12.62,11.91l15.71,14.84c20.34,19.21,45.51,44.05,51.7,71.3,3.94,17.38-.22,35.24-11.43,48.87-.69.84-1.63,1.36-2.2,1.48-1.07.22-2.16-.74-2.4-1.47-.45-1.35.54-2.22,1.29-3.21,13.57-17.93,14.24-41.22,3.55-60.9-10.41-19.17-25.87-34.89-41.63-49.95l-17.66-16.87-11.43-10.26-9.18,51.67-3.53,26.66Z"/>
    <path d="M113.77,209.78c.89,1.42.05,3.7-.42,4.42-.63.96-2.22,1.55-3.87.99-1.34-.46-1.52-2-2.28-3.57-4.81-9.98-10.7-18.77-16.56-28.17-18.77-30.12-34.84-66.75-36.74-102.22-.1-1.88-.22-4.15,2.42-4.84,4.06,24,9.87,46.64,19.91,68.7,7.76,17.05,17.32,32.2,27.15,48.01l10.39,16.69Z"/>
    <path d="M105.5,126.01c11.82,12.61,9.6,35.21-5.94,44.11-12.29-12.28-12.14-31.45-.45-43.62,1-1.04,2.12-1.73,3.06-1.89,1.19-.19,2.4.41,3.32,1.4ZM100.99,163.68c8.99-9.62,9.85-24.05,1.35-34-8.24,9.53-10.1,23.88-1.35,34Z"/>
    <path d="M83.6,94.15c14.5,14.82,5.08,37.12-1.05,38.56-1.16.27-2.61-.45-3.6-1.58-14.45-16.54-5.85-38.53-.23-39.04,1.58-.14,3.49.65,4.88,2.07ZM82.16,127.02c6.72-9.73,5.35-21.74-2.2-29.59-1.72.85-2.77,2.57-3.2,4.66-2.03,9.72-1.22,17.22,5.41,24.93Z"/>
    <path d="M75.75,176.87c-8.18,2.87-17.51,1.11-23.88-4.44-5.95-5.18-10.8-12.69-8.78-20.69,5.8-2.88,13.72-.27,18.74,3.42,7.72,4.58,12.97,11.13,13.93,21.71ZM70.34,172.91c-3.88-10.8-12.9-16.86-23.02-17.85,1.1,11.64,12.07,19.59,23.02,17.85Z"/>
    <path d="M60.48,143.36c-4.99,1.19-8.77-1.31-11.88-4.35-5.1-4.99-7.33-12-4.87-18.99,2.08-5.91,18.35,6.17,16.75,23.34ZM55.39,137.1c-1.07-5.97-3.84-9.43-7.75-12.45-.64,5.94,2.59,11.12,7.75,12.45Z"/>
  </svg>