<svg xmlns="http://www.w3.org/2000/svg" viewBox="0 0 256 256" fill="currentColor">
  <style>svg{color:#fff}@media(prefers-color-scheme:light){svg{color:#000}}</style>
  <path d="M56.42,202.32S119.39,106.31,220,22.57C143.26,4.81-21.48,80.54,56.42,202.32ZM90.43,131.16c-4.26,15.3-25.33,27.85-25.33,27.85-5.06-10.83-13.03-23.83-5.8-44.04,7.24-20.2,25.35-28.5,25.35-28.5,10.13,12.99,10.03,29.42,5.79,44.69ZM145.72,78.61c-9.78,15.7-37.2,22.65-37.2,22.65,0,0-5.79-24.55,6.52-41.15,12.31-16.6,36.92-19.48,36.92-19.48,2.89,10.82,2.57,23.83-6.24,37.98Z"/><path d="M211.32,68.77c-32.7,1.29-116.84,106.72-141.87,142.93,4.3,12.69,27.83,21.79,45.6,23.83,34.23,3.31,69.09-10.89,86.14-44.03,19.66-30.07,3.29-88.1,10.13-122.73ZM160.37,199.63c-28.3,11.29-51.3-6.23-51.3-6.23,0,0,4.47-20.42,35.29-24.37,31.76-4.07,44.52,5.95,44.52,5.95,0,0-9.5,17.06-28.51,24.64ZM178.3,143.05c-14.94,5.13-33.93.54-33.93.54,0,0,5.7-17.79,21.99-23.74,16.29-5.96,32.84,1.36,32.84,1.36,0,0-4.12,16.06-20.89,21.85Z"/>
</svg>